<?xml version="1.0" encoding="UTF-8"?>
<svg xmlns="http://www.w3.org/2000/svg" xmlns:xlink="http://www.w3.org/1999/xlink" width="150px" height="150px" viewBox="0 0 150 150" version="1.1">
<g id="surface1">
<path style=" stroke:none;fill-rule:nonzero;fill:rgb(0%,0%,0%);fill-opacity:1;" d="M 147.242188 110.570312 L 89.792969 20.550781 C 86.554688 15.472656 81.023438 12.441406 75 12.441406 C 68.976562 12.441406 63.445312 15.472656 60.207031 20.550781 L 2.757812 110.570312 C -0.691406 115.972656 -0.921875 122.824219 2.160156 128.445312 C 5.242188 134.066406 11.140625 137.558594 17.550781 137.558594 L 132.449219 137.558594 C 138.859375 137.558594 144.757812 134.066406 147.839844 128.445312 C 150.921875 122.824219 150.691406 115.972656 147.242188 110.570312 Z M 75 122.40625 C 69.71875 122.40625 65.433594 118.125 65.433594 112.839844 C 65.433594 107.558594 69.71875 103.273438 75 103.273438 C 80.28125 103.273438 84.566406 107.558594 84.566406 112.839844 C 84.566406 118.125 80.28125 122.40625 75 122.40625 Z M 88.257812 55.933594 L 83.546875 87.65625 C 82.855469 92.324219 78.507812 95.546875 73.835938 94.855469 C 70.066406 94.292969 67.238281 91.335938 66.65625 87.765625 L 61.539062 56.105469 C 60.347656 48.734375 65.359375 41.792969 72.730469 40.601562 C 80.101562 39.410156 87.039062 44.421875 88.230469 51.792969 C 88.457031 53.179688 88.449219 54.613281 88.257812 55.933594 Z M 88.257812 55.933594 "/>
</g>
</svg>
