<?xml version="1.0" encoding="UTF-8"?>
<svg xmlns="http://www.w3.org/2000/svg" xmlns:xlink="http://www.w3.org/1999/xlink" width="150px" height="150px" viewBox="0 0 150 150" version="1.1">
<g id="surface1">
<path style=" stroke:none;fill-rule:nonzero;fill:rgb(0%,0%,0%);fill-opacity:1;" d="M 75 0 C 33.527344 0 0 33.527344 0 75 C 0 116.472656 33.527344 150 75 150 C 116.472656 150 150 116.503906 150 75 C 150 33.496094 116.503906 0 75 0 Z M 81.378906 137.238281 L 81.378906 134.050781 C 81.378906 130.550781 78.496094 127.667969 75 127.667969 C 71.503906 127.667969 68.621094 130.550781 68.621094 134.050781 L 68.621094 137.238281 C 39.234375 134.234375 15.765625 110.765625 12.792969 81.410156 L 15.644531 81.410156 C 19.140625 81.410156 22.023438 78.527344 22.023438 75.03125 C 22.023438 71.535156 19.140625 68.648438 15.644531 68.648438 L 12.792969 68.648438 C 15.796875 39.265625 39.265625 15.796875 68.621094 12.820312 L 68.621094 15.644531 C 68.621094 19.140625 71.503906 22.023438 75 22.023438 C 78.496094 22.023438 81.378906 19.140625 81.378906 15.644531 L 81.378906 12.792969 C 110.765625 15.796875 134.234375 39.265625 137.207031 68.621094 L 134.050781 68.621094 C 130.550781 68.621094 127.667969 71.503906 127.667969 75 C 127.667969 78.496094 130.550781 81.378906 134.050781 81.378906 L 137.238281 81.378906 C 134.234375 110.765625 110.765625 134.234375 81.378906 137.238281 Z M 81.378906 137.238281 "/>
<path style=" stroke:none;fill-rule:nonzero;fill:rgb(0%,0%,0%);fill-opacity:1;" d="M 75 38.3125 C 71.503906 38.3125 68.621094 41.195312 68.621094 44.691406 L 68.621094 72.761719 L 39.570312 108.527344 C 37.332031 111.410156 37.976562 115.214844 40.519531 117.453125 C 44.078125 120.0625 47.851562 118.097656 49.140625 116.503906 L 80.121094 78.835938 C 80.765625 77.882812 81.410156 76.59375 81.410156 75 L 81.410156 44.691406 C 81.378906 41.164062 78.527344 38.3125 75 38.3125 Z M 75 38.3125 "/>
</g>
</svg>
