<?xml version="1.0" encoding="UTF-8"?>
<svg xmlns="http://www.w3.org/2000/svg" xmlns:xlink="http://www.w3.org/1999/xlink" width="150px" height="150px" viewBox="0 0 150 150" version="1.1">
<g id="surface1">
<path style=" stroke:none;fill-rule:nonzero;fill:rgb(0%,0%,0%);fill-opacity:1;" d="M 26.957031 31.585938 L 88.121094 31.585938 C 90.210938 31.585938 91.90625 33.28125 91.90625 35.371094 C 91.90625 37.460938 90.210938 39.15625 88.121094 39.15625 L 26.957031 39.15625 C 24.867188 39.15625 23.171875 37.460938 23.171875 35.371094 C 23.171875 33.28125 24.867188 31.585938 26.957031 31.585938 Z M 26.957031 47.945312 L 88.121094 47.945312 C 90.210938 47.945312 91.90625 49.640625 91.90625 51.730469 C 91.90625 53.820312 90.210938 55.515625 88.121094 55.515625 L 26.957031 55.515625 C 24.867188 55.515625 23.171875 53.820312 23.171875 51.730469 C 23.171875 49.640625 24.867188 47.945312 26.957031 47.945312 Z M 26.957031 64.304688 L 88.121094 64.304688 C 90.210938 64.304688 91.90625 66 91.90625 68.089844 C 91.90625 70.179688 90.210938 71.875 88.121094 71.875 L 26.957031 71.875 C 24.867188 71.875 23.171875 70.179688 23.171875 68.089844 C 23.171875 66 24.867188 64.304688 26.957031 64.304688 Z M 26.957031 80.667969 L 88.121094 80.667969 C 90.210938 80.667969 91.90625 82.363281 91.90625 84.453125 C 91.90625 86.542969 90.210938 88.238281 88.121094 88.238281 L 26.957031 88.238281 C 24.867188 88.238281 23.171875 86.542969 23.171875 84.453125 C 23.171875 82.363281 24.867188 80.667969 26.957031 80.667969 Z M 26.957031 80.667969 "/>
<path style=" stroke:none;fill-rule:nonzero;fill:rgb(0%,0%,0%);fill-opacity:1;" d="M 26.957031 39.15625 L 88.121094 39.15625 C 90.210938 39.15625 91.90625 37.460938 91.90625 35.371094 C 91.90625 33.28125 90.210938 31.585938 88.121094 31.585938 L 26.957031 31.585938 C 24.867188 31.585938 23.171875 33.28125 23.171875 35.371094 C 23.171875 37.460938 24.867188 39.15625 26.957031 39.15625 Z M 26.957031 39.15625 "/>
<path style=" stroke:none;fill-rule:nonzero;fill:rgb(0%,0%,0%);fill-opacity:1;" d="M 26.957031 55.515625 L 88.121094 55.515625 C 90.210938 55.515625 91.90625 53.820312 91.90625 51.730469 C 91.90625 49.640625 90.210938 47.945312 88.121094 47.945312 L 26.957031 47.945312 C 24.867188 47.945312 23.171875 49.640625 23.171875 51.730469 C 23.171875 53.820312 24.867188 55.515625 26.957031 55.515625 Z M 26.957031 55.515625 "/>
<path style=" stroke:none;fill-rule:nonzero;fill:rgb(0%,0%,0%);fill-opacity:1;" d="M 26.957031 71.875 L 88.121094 71.875 C 90.210938 71.875 91.90625 70.179688 91.90625 68.089844 C 91.90625 66 90.210938 64.304688 88.121094 64.304688 L 26.957031 64.304688 C 24.867188 64.304688 23.171875 66 23.171875 68.089844 C 23.171875 70.179688 24.867188 71.875 26.957031 71.875 Z M 26.957031 71.875 "/>
<path style=" stroke:none;fill-rule:nonzero;fill:rgb(0%,0%,0%);fill-opacity:1;" d="M 26.957031 88.238281 L 88.121094 88.238281 C 90.210938 88.238281 91.90625 86.542969 91.90625 84.453125 C 91.90625 82.363281 90.210938 80.667969 88.121094 80.667969 L 26.957031 80.667969 C 24.867188 80.667969 23.171875 82.363281 23.171875 84.453125 C 23.171875 86.542969 24.867188 88.238281 26.957031 88.238281 Z M 26.957031 88.238281 "/>
<path style=" stroke:none;fill-rule:nonzero;fill:rgb(0%,0%,0%);fill-opacity:1;" d="M 150 62.046875 C 150 61.046875 149.601562 60.082031 148.890625 59.371094 L 138.574219 49.054688 C 137.863281 48.34375 136.902344 47.945312 135.898438 47.945312 C 134.894531 47.945312 133.929688 48.34375 133.21875 49.054688 L 115.082031 67.195312 L 115.082031 11.609375 C 115.082031 9.519531 113.386719 7.824219 111.296875 7.824219 L 3.785156 7.824219 C 1.695312 7.824219 0 9.519531 0 11.609375 L 0 138.390625 C 0 140.480469 1.695312 142.175781 3.785156 142.175781 L 111.296875 142.175781 C 113.386719 142.175781 115.082031 140.480469 115.082031 138.390625 L 115.082031 98.535156 L 148.890625 64.726562 C 149.601562 64.015625 150 63.054688 150 62.046875 Z M 7.570312 134.605469 L 7.570312 15.394531 L 107.511719 15.394531 L 107.511719 74.765625 L 85.25 97.027344 L 26.957031 97.027344 C 24.867188 97.027344 23.171875 98.722656 23.171875 100.8125 C 23.171875 102.902344 24.867188 104.597656 26.957031 104.597656 L 77.679688 104.597656 L 77.027344 105.25 C 76.535156 105.738281 76.191406 106.355469 76.027344 107.027344 L 73.40625 117.785156 L 57.539062 117.785156 C 55.449219 117.785156 53.753906 119.480469 53.753906 121.570312 C 53.753906 123.660156 55.449219 125.355469 57.539062 125.355469 C 57.539062 125.355469 76.285156 125.355469 76.375 125.355469 C 76.675781 125.355469 76.976562 125.320312 77.273438 125.246094 L 90.917969 121.921875 C 91.589844 121.757812 92.207031 121.410156 92.695312 120.917969 L 107.511719 106.105469 L 107.511719 134.609375 L 7.570312 134.609375 Z M 88.09375 114.816406 L 81.527344 116.417969 L 83.128906 109.851562 L 135.898438 57.082031 L 140.863281 62.046875 Z M 88.09375 114.816406 "/>
</g>
</svg>
