<?xml version="1.0" standalone="no"?>
<!DOCTYPE svg PUBLIC "-//W3C//DTD SVG 20010904//EN"
 "http://www.w3.org/TR/2001/REC-SVG-20010904/DTD/svg10.dtd">
<svg version="1.0" xmlns="http://www.w3.org/2000/svg"
 width="240.000000pt" height="100.000000pt" viewBox="0 0 240.000000 100.000000"
 preserveAspectRatio="xMidYMid meet">

<g transform="translate(0.000000,100.000000) scale(0.100000,-0.100000)"
fill="#000000" stroke="none">
<path d="M25 975 l-25 -24 0 -445 0 -445 23 -27 c33 -37 81 -37 114 0 l23 27
0 435 c0 362 -2 440 -15 463 -24 48 -81 56 -120 16z"/>
<path d="M566 969 c-19 -15 -26 -30 -26 -56 0 -29 17 -59 96 -166 111 -150
127 -182 126 -253 0 -70 -16 -100 -126 -249 -102 -137 -113 -167 -80 -213 11
-16 25 -22 54 -22 36 0 43 5 94 69 84 105 146 139 232 127 71 -9 118 -40 181
-118 51 -64 64 -73 95 -76 27 -2 43 3 57 17 39 39 28 70 -69 203 -110 150
-130 186 -136 246 -8 70 13 115 125 268 61 84 101 147 101 161 0 35 -18 63
-46 73 -44 17 -71 1 -123 -70 -75 -103 -154 -140 -253 -119 -65 14 -105 44
-158 116 -62 85 -96 100 -144 62z"/>
<path d="M1520 495 c-182 -57 -230 -313 -82 -435 58 -48 129 -66 203 -52 107
20 172 80 133 123 -22 24 -45 24 -86 -1 -62 -38 -152 -21 -197 36 -41 52 -36
54 147 54 92 0 174 5 182 10 24 15 16 92 -16 151 -32 59 -91 104 -155 118 -56
13 -74 13 -129 -4z m156 -116 c18 -11 39 -31 48 -44 l16 -25 -140 0 -141 0 18
31 c37 65 127 82 199 38z"/>
<path d="M2091 499 c-184 -56 -242 -292 -104 -426 45 -43 116 -73 173 -73 47
0 130 30 162 59 25 22 30 33 24 54 -9 37 -44 44 -94 18 -71 -36 -156 -22 -200
34 -42 53 -38 55 153 55 165 0 175 1 185 20 17 32 -6 123 -43 172 -56 73 -172
113 -256 87z m116 -104 c41 -17 70 -40 84 -67 9 -17 0 -18 -126 -18 -148 0
-158 5 -107 53 49 47 91 56 149 32z"/>
<path d="M290 480 c-19 -19 -20 -33 -20 -219 0 -110 3 -207 6 -216 10 -24 60
-46 89 -39 51 13 55 32 55 249 0 232 -4 245 -71 245 -26 0 -46 -7 -59 -20z"/>
</g>
</svg>
