<?xml version="1.0" encoding="UTF-8"?>
<svg xmlns="http://www.w3.org/2000/svg" xmlns:xlink="http://www.w3.org/1999/xlink" width="150px" height="150px" viewBox="0 0 150 150" version="1.1">
<g id="surface1">
<path style=" stroke:none;fill-rule:nonzero;fill:rgb(0%,0%,0%);fill-opacity:1;" d="M 108.136719 75 C 108.136719 93.300781 93.300781 108.136719 75 108.136719 C 56.699219 108.136719 41.863281 93.300781 41.863281 75 C 41.863281 56.699219 56.699219 41.863281 75 41.863281 C 93.300781 41.863281 108.136719 56.699219 108.136719 75 Z M 108.136719 75 "/>
<path style=" stroke:none;fill-rule:nonzero;fill:rgb(0%,0%,0%);fill-opacity:1;" d="M 75 113.554688 C 53.742188 113.554688 36.445312 96.261719 36.445312 75 C 36.445312 53.742188 53.742188 36.445312 75 36.445312 C 96.257812 36.445312 113.554688 53.742188 113.554688 75 C 113.554688 96.261719 96.257812 113.554688 75 113.554688 Z M 75 47.28125 C 59.714844 47.28125 47.28125 59.714844 47.28125 75 C 47.28125 90.285156 59.714844 102.71875 75 102.71875 C 90.285156 102.71875 102.71875 90.285156 102.71875 75 C 102.71875 59.714844 90.285156 47.28125 75 47.28125 Z M 75 47.28125 "/>
<path style=" stroke:none;fill-rule:nonzero;fill:rgb(0%,0%,0%);fill-opacity:1;" d="M 75 28.453125 C 72.007812 28.453125 69.582031 26.027344 69.582031 23.035156 L 69.582031 5.417969 C 69.582031 2.425781 72.007812 0 75 0 C 77.992188 0 80.417969 2.425781 80.417969 5.417969 L 80.417969 23.035156 C 80.417969 26.027344 77.992188 28.453125 75 28.453125 Z M 75 28.453125 "/>
<path style=" stroke:none;fill-rule:nonzero;fill:rgb(0%,0%,0%);fill-opacity:1;" d="M 75 150 C 72.007812 150 69.582031 147.574219 69.582031 144.582031 L 69.582031 126.964844 C 69.582031 123.972656 72.007812 121.546875 75 121.546875 C 77.992188 121.546875 80.417969 123.972656 80.417969 126.964844 L 80.417969 144.582031 C 80.417969 147.574219 77.992188 150 75 150 Z M 75 150 "/>
<path style=" stroke:none;fill-rule:nonzero;fill:rgb(0%,0%,0%);fill-opacity:1;" d="M 144.582031 80.417969 L 126.964844 80.417969 C 123.972656 80.417969 121.546875 77.992188 121.546875 75 C 121.546875 72.007812 123.972656 69.582031 126.964844 69.582031 L 144.582031 69.582031 C 147.574219 69.582031 150 72.007812 150 75 C 150 77.992188 147.574219 80.417969 144.582031 80.417969 Z M 144.582031 80.417969 "/>
<path style=" stroke:none;fill-rule:nonzero;fill:rgb(0%,0%,0%);fill-opacity:1;" d="M 23.035156 80.417969 L 5.417969 80.417969 C 2.425781 80.417969 0 77.992188 0 75 C 0 72.007812 2.425781 69.582031 5.417969 69.582031 L 23.035156 69.582031 C 26.027344 69.582031 28.453125 72.007812 28.453125 75 C 28.453125 77.992188 26.027344 80.417969 23.035156 80.417969 Z M 23.035156 80.417969 "/>
<path style=" stroke:none;fill-rule:nonzero;fill:rgb(0%,0%,0%);fill-opacity:1;" d="M 111.746094 43.671875 C 110.359375 43.671875 108.972656 43.144531 107.914062 42.085938 C 105.796875 39.96875 105.796875 36.539062 107.914062 34.421875 L 120.371094 21.96875 C 122.488281 19.851562 125.917969 19.851562 128.035156 21.96875 C 130.148438 24.082031 130.148438 27.515625 128.035156 29.628906 L 115.578125 42.085938 C 114.519531 43.144531 113.132812 43.671875 111.746094 43.671875 Z M 111.746094 43.671875 "/>
<path style=" stroke:none;fill-rule:nonzero;fill:rgb(0%,0%,0%);fill-opacity:1;" d="M 25.796875 129.621094 C 24.410156 129.621094 23.023438 129.089844 21.964844 128.035156 C 19.851562 125.917969 19.851562 122.488281 21.964844 120.371094 L 34.421875 107.914062 C 36.539062 105.796875 39.972656 105.796875 42.085938 107.914062 C 44.203125 110.03125 44.203125 113.460938 42.085938 115.578125 L 29.628906 128.035156 C 28.570312 129.089844 27.183594 129.621094 25.796875 129.621094 Z M 25.796875 129.621094 "/>
<path style=" stroke:none;fill-rule:nonzero;fill:rgb(0%,0%,0%);fill-opacity:1;" d="M 124.203125 129.621094 C 122.816406 129.621094 121.429688 129.089844 120.371094 128.035156 L 107.914062 115.578125 C 105.796875 113.460938 105.796875 110.027344 107.914062 107.914062 C 110.027344 105.796875 113.460938 105.796875 115.574219 107.914062 L 128.03125 120.371094 C 130.148438 122.488281 130.148438 125.917969 128.03125 128.035156 C 126.976562 129.089844 125.589844 129.621094 124.203125 129.621094 Z M 124.203125 129.621094 "/>
<path style=" stroke:none;fill-rule:nonzero;fill:rgb(0%,0%,0%);fill-opacity:1;" d="M 38.253906 43.671875 C 36.867188 43.671875 35.480469 43.144531 34.421875 42.085938 L 21.964844 29.628906 C 19.851562 27.511719 19.851562 24.082031 21.964844 21.96875 C 24.082031 19.851562 27.511719 19.851562 29.628906 21.96875 L 42.085938 34.421875 C 44.203125 36.539062 44.203125 39.96875 42.085938 42.085938 C 41.027344 43.144531 39.640625 43.671875 38.253906 43.671875 Z M 38.253906 43.671875 "/>
</g>
</svg>
